<svg id="b368e7d6-7c4a-408c-9a35-0514749a7e1a" data-name="Layer 1"
	xmlns="http://www.w3.org/2000/svg" width="869.99994" height="520.13854" viewBox="0 0 869.99994 520.13854">
	<circle cx="524.99994" cy="335.5" r="16" fill="#6c63ff"/>
	<polygon points="594.599 507.783 582.339 507.783 576.506 460.495 594.601 460.496 594.599 507.783" fill="#ffb8b8"/>
	<path d="M573.58165,504.27982h23.64384a0,0,0,0,1,0,0v14.88687a0,0,0,0,1,0,0H558.69478a0,0,0,0,1,0,0v0a14.88688,14.88688,0,0,1,14.88688-14.88688Z" fill="#2f2e41"/>
	<polygon points="655.599 507.783 643.339 507.783 637.506 460.495 655.601 460.496 655.599 507.783" fill="#ffb8b8"/>
	<path d="M634.58165,504.27982h23.64384a0,0,0,0,1,0,0v14.88687a0,0,0,0,1,0,0H619.69478a0,0,0,0,1,0,0v0a14.88688,14.88688,0,0,1,14.88688-14.88688Z" fill="#2f2e41"/>
	<path d="M698.09758,528.60035a10.74272,10.74272,0,0,1,4.51052-15.84307l41.67577-114.86667L764.791,409.082,717.20624,518.85271a10.80091,10.80091,0,0,1-19.10866,9.74764Z" transform="translate(-165.00003 -189.93073)" fill="#ffb8b8"/>
	<path d="M814.33644,550.1843a10.74269,10.74269,0,0,1-2.89305-16.21659L798.53263,412.4583l23.33776,1.06622L827.23606,533.045a10.80091,10.80091,0,0,1-12.89962,17.13934Z" transform="translate(-165.00003 -189.93073)" fill="#ffb8b8"/>
	<circle cx="612.1058" cy="162.12254" r="24.56103" fill="#ffb8b8"/>
	<path d="M814.17958,522.54937H740.13271l.08911-.57617c.13306-.86133,13.19678-86.439,3.56177-114.436a11.813,11.813,0,0,1,6.06933-14.5835h.00025c13.77173-6.48535,40.20752-14.47119,62.52,4.90918a28.23448,28.23448,0,0,1,9.45947,23.396Z" transform="translate(-165.00003 -189.93073)" fill="#6c63ff"/>
	<path d="M754.35439,448.1812,721.01772,441.418l15.62622-37.02978a13.99723,13.99723,0,0,1,27.10571,6.99755Z" transform="translate(-165.00003 -189.93073)" fill="#6c63ff"/>
	<path d="M797.05043,460.73882l-2.00415-45.94141c-1.51977-8.63623,3.42408-16.80029,11.02735-18.13476,7.60547-1.32959,15.03174,4.66016,16.55835,13.35986l7.533,42.92774Z" transform="translate(-165.00003 -189.93073)" fill="#6c63ff"/>
	<path d="M811.71606,517.04933c11.91455,45.37671,13.21436,103.0694,10,166l-16-2-29-120-16,122-18-1c-5.37744-66.02972-10.61328-122.71527-2-160Z" transform="translate(-165.00003 -189.93073)" fill="#2f2e41"/>
	<path d="M793.2891,371.03474c-4.582,4.88079-13.09131,2.26067-13.68835-4.40717a8.05467,8.05467,0,0,1,.01014-1.55569c.30826-2.95357,2.01461-5.63506,1.60587-8.7536a4.59046,4.59046,0,0,0-.84011-2.14892c-3.65124-4.88933-12.22227,2.18687-15.6682-2.23929-2.113-2.714.3708-6.98713-1.25065-10.02051-2.14006-4.00358-8.47881-2.0286-12.45388-4.22116-4.42275-2.43948-4.15822-9.22524-1.24686-13.35269,3.55052-5.03359,9.77572-7.71951,15.92336-8.10661s12.25292,1.27475,17.99229,3.51145c6.52109,2.54134,12.98768,6.05351,17.00067,11.78753,4.88021,6.97317,5.34986,16.34793,2.90917,24.50174C802.09785,360.98987,797.03077,367.04906,793.2891,371.03474Z" transform="translate(-165.00003 -189.93073)" fill="#2f2e41"/>
</svg>